# xmcd
#
# Track frame offsets:
#	150
#	13535
#	27116
#	38855
#	50644
#	61607
#	72907
#	84649
#	97342
#	111861
#	121602
#	136429
#	150279
#	161187
#	173474
#	189501
#	204731
#	218468
#
# Disc length: 3037 seconds
#
# Revision: 0
# Processed by: cddbd v1.5.2PL0 Copyright (c) Steve Scherf et al.
# Submitted via: dBpowerAMP V4.0
#
DISCID=eb0bdb12
DTITLE=Mina - Se telefonando...
DYEAR=2002
DGENRE=Pop
TTITLE0=Se Telefonando...
TTITLE1=You Go To My Head
TTITLE2=La Inmensidad (l'Immensità)
TTITLE3=La Banda (a Banda)
TTITLE4=Angel Eyes
TTITLE5=Si Lloras Si Ries (se piangi se ridi)
TTITLE6=Breve Amore (you never told me)
TTITLE7=Full Moon And Empty Arms
TTITLE8=Un Ano De Amor (un anno d'amore)
TTITLE9=Ta Ra Ta Ta (try your luck)
TTITLE10=Stars Fell On Alabama
TTITLE11=Sabor A Mi
TTITLE12=E' L'Uomo Per Me (he walks like a man)
TTITLE13=Ebb Tide
TTITLE14=Sono Come Tu Mi Vuoi
TTITLE15=My Melancholy Baby
TTITLE16=Se Tu Non Fossi Qui
TTITLE17=Lontanissimo (somewhere)
EXTD=raccolta successi e rarità di Mina
EXTT0=
EXTT1=
EXTT2=
EXTT3=
EXTT4=
EXTT5=
EXTT6=
EXTT7=
EXTT8=
EXTT9=
EXTT10=
EXTT11=
EXTT12=
EXTT13=
EXTT14=
EXTT15=
EXTT16=
EXTT17=
PLAYORDER=
